<?xml version="1.0" encoding="UTF-8" standalone="no"?>
<!-- Created with Inkscape (http://www.inkscape.org/) -->

<svg
   xmlns:dc="http://purl.org/dc/elements/1.1/"
   xmlns:cc="http://creativecommons.org/ns#"
   xmlns:rdf="http://www.w3.org/1999/02/22-rdf-syntax-ns#"
   xmlns:svg="http://www.w3.org/2000/svg"
   xmlns="http://www.w3.org/2000/svg"
   xmlns:sodipodi="http://sodipodi.sourceforge.net/DTD/sodipodi-0.dtd"
   xmlns:inkscape="http://www.inkscape.org/namespaces/inkscape"
   width="744.09448819"
   height="1052.3622047"
   id="svg2"
   version="1.1"
   inkscape:version="0.48.4 r9939"
   sodipodi:docname="12mm-mir11m.pdf">
  <sodipodi:namedview
     id="base"
     pagecolor="#ffffff"
     bordercolor="#666666"
     borderopacity="1.0"
     inkscape:pageopacity="0.0"
     inkscape:pageshadow="2"
     inkscape:zoom="2.8"
     inkscape:cx="157.66987"
     inkscape:cy="913.70354"
     inkscape:document-units="px"
     inkscape:current-layer="layer1"
     showgrid="false"
     inkscape:window-width="1920"
     inkscape:window-height="1018"
     inkscape:window-x="-8"
     inkscape:window-y="-8"
     inkscape:window-maximized="1" />
  <defs
     id="defs4" />
  <metadata
     id="metadata7">
    <rdf:RDF>
      <cc:Work
         rdf:about="">
        <dc:format>image/svg+xml</dc:format>
        <dc:type
           rdf:resource="http://purl.org/dc/dcmitype/StillImage" />
        <dc:title></dc:title>
      </cc:Work>
    </rdf:RDF>
  </metadata>
  <g
     id="layer1"
     inkscape:groupmode="layer"
     inkscape:label="Layer 1">
    <g
       id="g3789">
      <g
         style="stroke:#000000;stroke-width:0.02;stroke-miterlimit:4;stroke-opacity:1;stroke-dasharray:none"
         inkscape:label="Gear80"
         transform="translate(119.04525,121.35792)"
         id="g2990">
        <path
           inkscape:connector-curvature="0"
           style="fill:none;stroke:#000000;stroke-width:0.02;stroke-miterlimit:4;stroke-opacity:1;stroke-dasharray:none"
           d="M 109.636,-3.047 112.469,-2.209 115.298,-1.123 115.298,1.123 112.469,2.209 109.636,3.047 109.537,5.564 112.296,6.622 115.03,7.926 114.854,10.166 111.949,11.026 109.059,11.64 108.763,14.141 111.43,15.413 114.054,16.927 113.702,19.146 110.739,19.775 107.81,20.16 107.318,22.631 109.877,24.108 112.374,25.823 111.85,28.008 108.846,28.403 105.896,28.557 105.212,30.981 107.647,32.654 110.002,34.56 109.307,36.697 106.282,36.855 103.329,36.777 102.457,39.141 104.753,41 106.951,43.085 106.091,45.16 103.063,45.081 100.124,44.771 99.07,47.059 101.213,49.092 103.241,51.343 102.221,53.345 99.208,53.028 96.303,52.489 95.072,54.687 97.05,56.882 98.894,59.285 97.72,61.201 94.742,60.648 91.888,59.883 90.489,61.977 92.288,64.321 93.938,66.861 92.617,68.679 89.691,67.894 86.906,66.908 85.347,68.886 86.956,71.363 88.403,74.026 86.943,75.734 84.088,74.722 81.389,73.52 79.679,75.37 81.089,77.966 82.322,80.733 80.733,82.322 77.966,81.089 75.37,79.679 73.52,81.389 74.722,84.088 75.734,86.943 74.026,88.403 71.363,86.956 68.886,85.347 66.908,86.906 67.894,89.691 68.679,92.617 66.861,93.938 64.321,92.288 61.977,90.489 59.883,91.888 60.648,94.742 61.201,97.72 59.285,98.894 56.882,97.05 54.687,95.072 52.489,96.303 53.028,99.208 53.345,102.221 51.343,103.241 49.092,101.213 47.059,99.07 44.771,100.124 45.081,103.063 45.16,106.091 43.085,106.951 41,104.753 39.141,102.457 36.777,103.329 36.855,106.282 36.697,109.307 34.56,110.002 32.654,107.647 30.981,105.212 28.557,105.896 28.403,108.846 28.008,111.85 25.823,112.374 24.108,109.877 22.631,107.318 20.16,107.81 19.775,110.739 19.146,113.702 16.927,114.054 15.413,111.43 14.141,108.763 11.64,109.059 11.026,111.949 10.166,114.854 7.926,115.03 6.622,112.296 5.564,109.537 3.047,109.636 2.209,112.469 1.123,115.298 -1.123,115.298 -2.209,112.469 -3.047,109.636 -5.564,109.537 -6.622,112.296 -7.926,115.03 -10.166,114.854 -11.026,111.949 -11.64,109.059 -14.141,108.763 -15.413,111.43 -16.927,114.054 -19.146,113.702 -19.775,110.739 -20.16,107.81 -22.631,107.318 -24.108,109.877 -25.823,112.374 -28.008,111.85 -28.403,108.846 -28.557,105.896 -30.981,105.212 -32.654,107.647 -34.56,110.002 -36.697,109.307 -36.855,106.282 -36.777,103.329 -39.141,102.457 -41,104.753 -43.085,106.951 -45.16,106.091 -45.081,103.063 -44.771,100.124 -47.059,99.07 -49.092,101.213 -51.343,103.241 -53.345,102.221 -53.028,99.208 -52.489,96.303 -54.687,95.072 -56.882,97.05 -59.285,98.894 -61.201,97.72 -60.648,94.742 -59.883,91.888 -61.977,90.489 -64.321,92.288 -66.861,93.938 -68.679,92.617 -67.894,89.691 -66.908,86.906 -68.886,85.347 -71.363,86.956 -74.026,88.403 -75.734,86.943 -74.722,84.088 -73.52,81.389 -75.37,79.679 -77.966,81.089 -80.733,82.322 -82.322,80.733 -81.089,77.966 -79.679,75.37 -81.389,73.52 -84.088,74.722 -86.943,75.734 -88.403,74.026 -86.956,71.363 -85.347,68.886 -86.906,66.908 -89.691,67.894 -92.617,68.679 -93.938,66.861 -92.288,64.321 -90.489,61.977 -91.888,59.883 -94.742,60.648 -97.72,61.201 -98.894,59.285 -97.05,56.882 -95.072,54.687 -96.303,52.489 -99.208,53.028 -102.221,53.345 -103.241,51.343 -101.213,49.092 -99.07,47.059 -100.124,44.771 -103.063,45.081 -106.091,45.16 -106.951,43.085 -104.753,41 -102.457,39.141 -103.329,36.777 -106.282,36.855 -109.307,36.697 -110.002,34.56 -107.647,32.654 -105.212,30.981 -105.896,28.557 -108.846,28.403 -111.85,28.008 -112.374,25.823 -109.877,24.108 -107.318,22.631 -107.81,20.16 -110.739,19.775 -113.702,19.146 -114.054,16.927 -111.43,15.413 -108.763,14.141 -109.059,11.64 -111.949,11.026 -114.854,10.166 -115.03,7.926 -112.296,6.622 -109.537,5.564 -109.636,3.047 -112.469,2.209 -115.298,1.123 -115.298,-1.123 -112.469,-2.209 -109.636,-3.047 -109.537,-5.564 -112.296,-6.622 -115.03,-7.926 -114.854,-10.166 -111.949,-11.026 -109.059,-11.64 -108.763,-14.141 -111.43,-15.413 -114.054,-16.927 -113.702,-19.146 -110.739,-19.775 -107.81,-20.16 -107.318,-22.631 -109.877,-24.108 -112.374,-25.823 -111.85,-28.008 -108.846,-28.403 -105.896,-28.557 -105.212,-30.981 -107.647,-32.654 -110.002,-34.56 -109.307,-36.697 -106.282,-36.855 -103.329,-36.777 -102.457,-39.141 -104.753,-41 -106.951,-43.085 -106.091,-45.16 -103.063,-45.081 -100.124,-44.771 -99.07,-47.059 -101.213,-49.092 -103.241,-51.343 -102.221,-53.345 -99.208,-53.028 -96.303,-52.489 -95.072,-54.687 -97.05,-56.882 -98.894,-59.285 -97.72,-61.201 -94.742,-60.648 -91.888,-59.883 -90.489,-61.977 -92.288,-64.321 -93.938,-66.861 -92.617,-68.679 -89.691,-67.894 -86.906,-66.908 -85.347,-68.886 -86.956,-71.363 -88.403,-74.026 -86.943,-75.734 -84.088,-74.722 -81.389,-73.52 -79.679,-75.37 -81.089,-77.966 -82.322,-80.733 -80.733,-82.322 -77.966,-81.089 -75.37,-79.679 -73.52,-81.389 -74.722,-84.088 -75.734,-86.943 -74.026,-88.403 -71.363,-86.956 -68.886,-85.347 -66.908,-86.906 -67.894,-89.691 -68.679,-92.617 -66.861,-93.938 -64.321,-92.288 -61.977,-90.489 -59.883,-91.888 -60.648,-94.742 -61.201,-97.72 -59.285,-98.894 -56.882,-97.05 -54.687,-95.072 -52.489,-96.303 -53.028,-99.208 -53.345,-102.221 -51.343,-103.241 -49.092,-101.213 -47.059,-99.07 -44.771,-100.124 -45.081,-103.063 -45.16,-106.091 -43.085,-106.951 -41,-104.753 -39.141,-102.457 -36.777,-103.329 -36.855,-106.282 -36.697,-109.307 -34.56,-110.002 -32.654,-107.647 -30.981,-105.212 -28.557,-105.896 -28.403,-108.846 -28.008,-111.85 -25.823,-112.374 -24.108,-109.877 -22.631,-107.318 -20.16,-107.81 -19.775,-110.739 -19.146,-113.702 -16.927,-114.054 -15.413,-111.43 -14.141,-108.763 -11.64,-109.059 -11.026,-111.949 -10.166,-114.854 -7.926,-115.03 -6.622,-112.296 -5.564,-109.537 -3.047,-109.636 -2.209,-112.469 -1.123,-115.298 1.123,-115.298 2.209,-112.469 3.047,-109.636 5.564,-109.537 6.622,-112.296 7.926,-115.03 10.166,-114.854 11.026,-111.949 11.64,-109.059 14.141,-108.763 15.413,-111.43 16.927,-114.054 19.146,-113.702 19.775,-110.739 20.16,-107.81 22.631,-107.318 24.108,-109.877 25.823,-112.374 28.008,-111.85 28.403,-108.846 28.557,-105.896 30.981,-105.212 32.654,-107.647 34.56,-110.002 36.697,-109.307 36.855,-106.282 36.777,-103.329 39.141,-102.457 41,-104.753 43.085,-106.951 45.16,-106.091 45.081,-103.063 44.771,-100.124 47.059,-99.07 49.092,-101.213 51.343,-103.241 53.345,-102.221 53.028,-99.208 52.489,-96.303 54.687,-95.072 56.882,-97.05 59.285,-98.894 61.201,-97.72 60.648,-94.742 59.883,-91.888 61.977,-90.489 64.321,-92.288 66.861,-93.938 68.679,-92.617 67.894,-89.691 66.908,-86.906 68.886,-85.347 71.363,-86.956 74.026,-88.403 75.734,-86.943 74.722,-84.088 73.52,-81.389 75.37,-79.679 77.966,-81.089 80.733,-82.322 82.322,-80.733 81.089,-77.966 79.679,-75.37 81.389,-73.52 84.088,-74.722 86.943,-75.734 88.403,-74.026 86.956,-71.363 85.347,-68.886 86.906,-66.908 89.691,-67.894 92.617,-68.679 93.938,-66.861 92.288,-64.321 90.489,-61.977 91.888,-59.883 94.742,-60.648 97.72,-61.201 98.894,-59.285 97.05,-56.882 95.072,-54.687 96.303,-52.489 99.208,-53.028 102.221,-53.345 103.241,-51.343 101.213,-49.092 99.07,-47.059 100.124,-44.771 103.063,-45.081 106.091,-45.16 106.951,-43.085 104.753,-41 102.457,-39.141 103.329,-36.777 106.282,-36.855 109.307,-36.697 110.002,-34.56 107.647,-32.654 105.212,-30.981 105.896,-28.557 108.846,-28.403 111.85,-28.008 112.374,-25.823 109.877,-24.108 107.318,-22.631 107.81,-20.16 110.739,-19.775 113.702,-19.146 114.054,-16.927 111.43,-15.413 108.763,-14.141 109.059,-11.64 111.949,-11.026 114.854,-10.166 115.03,-7.926 112.296,-6.622 109.537,-5.564 z"
           id="path2992" />
      </g>
      <path
         transform="matrix(1.3430053,0,0,1.3430053,-282.65723,11.944188)"
         d="M 357.5,81.469322 A 58.392857,58.392857 0 1 1 240.71429,81.469322 58.392857,58.392857 0 1 1 357.5,81.469322 z"
         sodipodi:ry="58.392857"
         sodipodi:rx="58.392857"
         sodipodi:cy="81.469322"
         sodipodi:cx="299.10715"
         id="path3771"
         style="fill:none;stroke:#000000;stroke-width:0.01489197;stroke-linecap:round;stroke-linejoin:miter;stroke-miterlimit:4;stroke-opacity:1;stroke-dasharray:none"
         sodipodi:type="arc" />
    </g>
  </g>
</svg>
