<?xml version="1.0" encoding="UTF-8" standalone="no"?>
<!-- Created with Inkscape (http://www.inkscape.org/) -->

<svg
   xmlns:dc="http://purl.org/dc/elements/1.1/"
   xmlns:cc="http://creativecommons.org/ns#"
   xmlns:rdf="http://www.w3.org/1999/02/22-rdf-syntax-ns#"
   xmlns:svg="http://www.w3.org/2000/svg"
   xmlns="http://www.w3.org/2000/svg"
   xmlns:sodipodi="http://sodipodi.sourceforge.net/DTD/sodipodi-0.dtd"
   xmlns:inkscape="http://www.inkscape.org/namespaces/inkscape"
   inkscape:version="0.48.4 r9939"
   version="1.1"
   id="svg2"
   height="1620"
   width="2160"
   sodipodi:docname="lensgears1.svg">
  <sodipodi:namedview
     id="base"
     pagecolor="#ffffff"
     bordercolor="#666666"
     borderopacity="1.0"
     inkscape:pageopacity="0.0"
     inkscape:pageshadow="2"
     inkscape:zoom="2.8284272"
     inkscape:cx="197.98305"
     inkscape:cy="1397.7841"
     inkscape:document-units="in"
     inkscape:current-layer="svg2"
     showgrid="false"
     inkscape:window-width="1920"
     inkscape:window-height="1058"
     inkscape:window-x="1912"
     inkscape:window-y="-8"
     inkscape:window-maximized="1"
     units="in" />
  <defs
     id="defs4" />
  <metadata
     id="metadata7">
    <rdf:RDF>
      <cc:Work
         rdf:about="">
        <dc:format>image/svg+xml</dc:format>
        <dc:type
           rdf:resource="http://purl.org/dc/dcmitype/StillImage" />
        <dc:title />
      </cc:Work>
    </rdf:RDF>
  </metadata>
  <g
     inkscape:label="Layer 1"
     inkscape:groupmode="layer"
     id="layer1"
     transform="translate(0,567.64025)" />
  <path
     sodipodi:type="arc"
     style="fill:none;stroke:#000000;stroke-width:0.41099554;stroke-miterlimit:4;stroke-opacity:1;stroke-dasharray:none"
     id="path3002"
     sodipodi:cx="228.57143"
     sodipodi:cy="226.6479"
     sodipodi:rx="65.714287"
     sodipodi:ry="65.714287"
     d="M 294.28571,226.6479 A 65.714287,65.714287 0 1 1 162.85714,226.6479 65.714287,65.714287 0 1 1 294.28571,226.6479 z"
     transform="matrix(2.1898048,0,0,2.1898048,-349.3534,-343.29644)" />
  <g
     style="stroke-width:0.9;stroke-miterlimit:4;stroke-dasharray:none;stroke:#000000;stroke-opacity:1"
     id="g3168"
     transform="translate(241.87804,151.72967)"
     inkscape:label="Gear100">
    <path
       id="path3170"
       d="M 47.062365,-1.797473 49.891365,-0.92047297 52.716365,0.15352703 52.716365,2.423527 49.891365,3.497527 47.062365,4.374527 46.983365,6.859527 49.752365,7.912527 52.504365,9.161527 52.362365,11.426527 49.475365,12.320527 46.596365,13.018527 46.362365,15.493527 49.059365,16.718527 51.728365,18.137527 51.443365,20.390527 48.506365,21.101527 45.589365,21.616527 45.200365,24.072527 47.815365,25.464527 50.388365,27.048527 49.963365,29.277527 46.987365,29.803527 44.043365,30.134527 43.501365,32.560527 46.023365,34.114527 48.493365,35.856527 47.928365,38.055527 44.925365,38.392527 41.966365,38.538527 41.272365,40.926527 43.692365,42.634527 46.047365,44.528527 45.346365,46.687527 42.327365,46.835527 39.365365,46.795527 38.523365,49.134527 40.831365,50.991527 43.062365,53.030527 42.227365,55.140527 39.205365,55.098527 36.251365,54.872527 35.264365,57.154527 37.451365,59.152527 39.550365,61.327527 38.583365,63.381527 35.570365,63.149527 32.636365,62.738527 31.507365,64.954527 33.564365,67.085527 35.523365,69.387527 34.429365,71.376527 31.436365,70.956527 28.534365,70.362527 27.269365,72.502527 29.188365,74.758527 30.998365,77.179527 29.781365,79.095527 26.821365,78.488527 23.962365,77.712527 22.564365,79.769527 24.338365,82.141527 25.992365,84.671527 24.658365,86.507527 21.741365,85.715527 18.937365,84.761527 17.413365,86.726527 19.034365,89.205527 20.526365,91.834527 19.079365,93.583527 16.218365,92.609527 13.479365,91.481527 11.835365,93.346527 13.297365,95.923527 14.622365,98.639527 13.068365,100.29453 10.273365,99.143527 7.6103648,97.845527 5.8523648,99.603527 7.1503648,102.26653 8.3013648,105.06153 6.6463648,106.61553 3.9303648,105.29053 1.3533648,103.82853 -0.51163519,105.47253 0.61636481,108.21153 1.5903648,111.07253 -0.15863519,112.51953 -2.7876352,111.02753 -5.2666352,109.40653 -7.2316352,110.93053 -6.2776352,113.73453 -5.4856352,116.65153 -7.3216352,117.98553 -9.8516352,116.33153 -12.223635,114.55753 -14.280635,115.95553 -13.504635,118.81453 -12.897635,121.77453 -14.813635,122.99153 -17.234635,121.18153 -19.490635,119.26253 -21.630635,120.52753 -21.036635,123.42953 -20.616635,126.42253 -22.605635,127.51653 -24.907635,125.55753 -27.038635,123.50053 -29.254635,124.62953 -28.843635,127.56353 -28.611635,130.57653 -30.665635,131.54353 -32.840635,129.44453 -34.838635,127.25753 -37.120635,128.24453 -36.894635,131.19853 -36.852635,134.22053 -38.962635,135.05553 -41.001635,132.82453 -42.858635,130.51653 -45.197635,131.35853 -45.157635,134.32053 -45.305635,137.33953 -47.464635,138.04053 -49.358635,135.68553 -51.066635,133.26553 -53.454635,133.95953 -53.600635,136.91853 -53.937635,139.92153 -56.136635,140.48653 -57.878635,138.01653 -59.432635,135.49453 -61.858635,136.03653 -62.189635,138.98053 -62.715635,141.95653 -64.944635,142.38153 -66.528635,139.80853 -67.920635,137.19353 -70.376635,137.58253 -70.891635,140.49953 -71.602635,143.43653 -73.855635,143.72153 -75.274635,141.05253 -76.499635,138.35553 -78.974635,138.58953 -79.672635,141.46853 -80.566635,144.35553 -82.831635,144.49753 -84.080635,141.74553 -85.133635,138.97653 -87.618635,139.05553 -88.495635,141.88453 -89.569635,144.70953 -91.839635,144.70953 -92.913635,141.88453 -93.790635,139.05553 -96.275635,138.97653 -97.328635,141.74553 -98.577635,144.49753 -100.84264,144.35553 -101.73664,141.46853 -102.43464,138.58953 -104.90964,138.35553 -106.13464,141.05253 -107.55364,143.72153 -109.80664,143.43653 -110.51764,140.49953 -111.03264,137.58253 -113.48864,137.19353 -114.88064,139.80853 -116.46464,142.38153 -118.69364,141.95653 -119.21964,138.98053 -119.55064,136.03653 -121.97664,135.49453 -123.53064,138.01653 -125.27264,140.48653 -127.47164,139.92153 -127.80864,136.91853 -127.95464,133.95953 -130.34264,133.26553 -132.05064,135.68553 -133.94464,138.04053 -136.10364,137.33953 -136.25164,134.32053 -136.21164,131.35853 -138.55064,130.51653 -140.40764,132.82453 -142.44664,135.05553 -144.55664,134.22053 -144.51464,131.19853 -144.28864,128.24453 -146.57064,127.25753 -148.56864,129.44453 -150.74364,131.54353 -152.79764,130.57653 -152.56564,127.56353 -152.15464,124.62953 -154.37064,123.50053 -156.50164,125.55753 -158.80364,127.51653 -160.79264,126.42253 -160.37264,123.42953 -159.77864,120.52753 -161.91864,119.26253 -164.17464,121.18153 -166.59564,122.99153 -168.51164,121.77453 -167.90464,118.81453 -167.12864,115.95553 -169.18564,114.55753 -171.55764,116.33153 -174.08764,117.98553 -175.92364,116.65153 -175.13164,113.73453 -174.17764,110.93053 -176.14264,109.40653 -178.62164,111.02753 -181.25064,112.51953 -182.99964,111.07253 -182.02564,108.21153 -180.89764,105.47253 -182.76264,103.82853 -185.33964,105.29053 -188.05564,106.61553 -189.71064,105.06153 -188.55964,102.26653 -187.26164,99.603527 -189.01964,97.845527 -191.68264,99.143527 -194.47764,100.29453 -196.03164,98.639527 -194.70664,95.923527 -193.24464,93.346527 -194.88864,91.481527 -197.62764,92.609527 -200.48864,93.583527 -201.93564,91.834527 -200.44364,89.205527 -198.82264,86.726527 -200.34664,84.761527 -203.15064,85.715527 -206.06764,86.507527 -207.40164,84.671527 -205.74764,82.141527 -203.97364,79.769527 -205.37164,77.712527 -208.23064,78.488527 -211.19064,79.095527 -212.40764,77.179527 -210.59764,74.758527 -208.67864,72.502527 -209.94364,70.362527 -212.84564,70.956527 -215.83864,71.376527 -216.93264,69.387527 -214.97364,67.085527 -212.91664,64.954527 -214.04564,62.738527 -216.97964,63.149527 -219.99264,63.381527 -220.95964,61.327527 -218.86064,59.152527 -216.67364,57.154527 -217.66064,54.872527 -220.61464,55.098527 -223.63664,55.140527 -224.47164,53.030527 -222.24064,50.991527 -219.93264,49.134527 -220.77464,46.795527 -223.73664,46.835527 -226.75564,46.687527 -227.45664,44.528527 -225.10164,42.634527 -222.68164,40.926527 -223.37564,38.538527 -226.33464,38.392527 -229.33764,38.055527 -229.90264,35.856527 -227.43264,34.114527 -224.91064,32.560527 -225.45264,30.134527 -228.39664,29.803527 -231.37264,29.277527 -231.79764,27.048527 -229.22464,25.464527 -226.60964,24.072527 -226.99864,21.616527 -229.91564,21.101527 -232.85264,20.390527 -233.13764,18.137527 -230.46864,16.718527 -227.77164,15.493527 -228.00564,13.018527 -230.88464,12.320527 -233.77164,11.426527 -233.91364,9.161527 -231.16164,7.912527 -228.39264,6.859527 -228.47164,4.374527 -231.30064,3.497527 -234.12564,2.423527 -234.12564,0.15352703 -231.30064,-0.92047297 -228.47164,-1.797473 -228.39264,-4.282473 -231.16164,-5.335473 -233.91364,-6.584473 -233.77164,-8.849473 -230.88464,-9.743473 -228.00564,-10.441473 -227.77164,-12.916473 -230.46864,-14.141473 -233.13764,-15.560473 -232.85264,-17.813473 -229.91564,-18.524473 -226.99864,-19.039473 -226.60964,-21.495473 -229.22464,-22.887473 -231.79764,-24.471473 -231.37264,-26.700473 -228.39664,-27.226473 -225.45264,-27.557473 -224.91064,-29.983473 -227.43264,-31.537473 -229.90264,-33.279473 -229.33764,-35.478473 -226.33464,-35.815473 -223.37564,-35.961473 -222.68164,-38.349473 -225.10164,-40.057473 -227.45664,-41.951473 -226.75564,-44.110473 -223.73664,-44.258473 -220.77464,-44.218473 -219.93264,-46.557473 -222.24064,-48.414473 -224.47164,-50.453473 -223.63664,-52.563473 -220.61464,-52.521473 -217.66064,-52.295473 -216.67364,-54.577473 -218.86064,-56.575473 -220.95964,-58.750473 -219.99264,-60.804473 -216.97964,-60.572473 -214.04564,-60.161473 -212.91664,-62.377473 -214.97364,-64.508473 -216.93264,-66.810473 -215.83864,-68.799473 -212.84564,-68.379473 -209.94364,-67.785473 -208.67864,-69.925473 -210.59764,-72.181473 -212.40764,-74.602473 -211.19064,-76.518473 -208.23064,-75.911473 -205.37164,-75.135473 -203.97364,-77.192473 -205.74764,-79.564473 -207.40164,-82.094473 -206.06764,-83.930473 -203.15064,-83.138473 -200.34664,-82.184473 -198.82264,-84.149473 -200.44364,-86.628473 -201.93564,-89.257473 -200.48864,-91.006473 -197.62764,-90.032473 -194.88864,-88.904473 -193.24464,-90.769473 -194.70664,-93.346473 -196.03164,-96.062473 -194.47764,-97.717473 -191.68264,-96.566473 -189.01964,-95.268473 -187.26164,-97.026473 -188.55964,-99.689473 -189.71064,-102.48447 -188.05564,-104.03847 -185.33964,-102.71347 -182.76264,-101.25147 -180.89764,-102.89547 -182.02564,-105.63447 -182.99964,-108.49547 -181.25064,-109.94247 -178.62164,-108.45047 -176.14264,-106.82947 -174.17764,-108.35347 -175.13164,-111.15747 -175.92364,-114.07447 -174.08764,-115.40847 -171.55764,-113.75447 -169.18564,-111.98047 -167.12864,-113.37847 -167.90464,-116.23747 -168.51164,-119.19747 -166.59564,-120.41447 -164.17464,-118.60447 -161.91864,-116.68547 -159.77864,-117.95047 -160.37264,-120.85247 -160.79264,-123.84547 -158.80364,-124.93947 -156.50164,-122.98047 -154.37064,-120.92347 -152.15464,-122.05247 -152.56564,-124.98647 -152.79764,-127.99947 -150.74364,-128.96647 -148.56864,-126.86747 -146.57064,-124.68047 -144.28864,-125.66747 -144.51464,-128.62147 -144.55664,-131.64347 -142.44664,-132.47847 -140.40764,-130.24747 -138.55064,-127.93947 -136.21164,-128.78147 -136.25164,-131.74347 -136.10364,-134.76247 -133.94464,-135.46347 -132.05064,-133.10847 -130.34264,-130.68847 -127.95464,-131.38247 -127.80864,-134.34147 -127.47164,-137.34447 -125.27264,-137.90947 -123.53064,-135.43947 -121.97664,-132.91747 -119.55064,-133.45947 -119.21964,-136.40347 -118.69364,-139.37947 -116.46464,-139.80447 -114.88064,-137.23147 -113.48864,-134.61647 -111.03264,-135.00547 -110.51764,-137.92247 -109.80664,-140.85947 -107.55364,-141.14447 -106.13464,-138.47547 -104.90964,-135.77847 -102.43464,-136.01247 -101.73664,-138.89147 -100.84264,-141.77847 -98.577635,-141.92047 -97.328635,-139.16847 -96.275635,-136.39947 -93.790635,-136.47847 -92.913635,-139.30747 -91.839635,-142.13247 -89.569635,-142.13247 -88.495635,-139.30747 -87.618635,-136.47847 -85.133635,-136.39947 -84.080635,-139.16847 -82.831635,-141.92047 -80.566635,-141.77847 -79.672635,-138.89147 -78.974635,-136.01247 -76.499635,-135.77847 -75.274635,-138.47547 -73.855635,-141.14447 -71.602635,-140.85947 -70.891635,-137.92247 -70.376635,-135.00547 -67.920635,-134.61647 -66.528635,-137.23147 -64.944635,-139.80447 -62.715635,-139.37947 -62.189635,-136.40347 -61.858635,-133.45947 -59.432635,-132.91747 -57.878635,-135.43947 -56.136635,-137.90947 -53.937635,-137.34447 -53.600635,-134.34147 -53.454635,-131.38247 -51.066635,-130.68847 -49.358635,-133.10847 -47.464635,-135.46347 -45.305635,-134.76247 -45.157635,-131.74347 -45.197635,-128.78147 -42.858635,-127.93947 -41.001635,-130.24747 -38.962635,-132.47847 -36.852635,-131.64347 -36.894635,-128.62147 -37.120635,-125.66747 -34.838635,-124.68047 -32.840635,-126.86747 -30.665635,-128.96647 -28.611635,-127.99947 -28.843635,-124.98647 -29.254635,-122.05247 -27.038635,-120.92347 -24.907635,-122.98047 -22.605635,-124.93947 -20.616635,-123.84547 -21.036635,-120.85247 -21.630635,-117.95047 -19.490635,-116.68547 -17.234635,-118.60447 -14.813635,-120.41447 -12.897635,-119.19747 -13.504635,-116.23747 -14.280635,-113.37847 -12.223635,-111.98047 -9.8516352,-113.75447 -7.3216352,-115.40847 -5.4856352,-114.07447 -6.2776352,-111.15747 -7.2316352,-108.35347 -5.2666352,-106.82947 -2.7876352,-108.45047 -0.15863519,-109.94247 1.5903648,-108.49547 0.61636481,-105.63447 -0.51163519,-102.89547 1.3533648,-101.25147 3.9303648,-102.71347 6.6463648,-104.03847 8.3013648,-102.48447 7.1503648,-99.689473 5.8523648,-97.026473 7.6103648,-95.268473 10.273365,-96.566473 13.068365,-97.717473 14.622365,-96.062473 13.297365,-93.346473 11.835365,-90.769473 13.479365,-88.904473 16.218365,-90.032473 19.079365,-91.006473 20.526365,-89.257473 19.034365,-86.628473 17.413365,-84.149473 18.937365,-82.184473 21.741365,-83.138473 24.658365,-83.930473 25.992365,-82.094473 24.338365,-79.564473 22.564365,-77.192473 23.962365,-75.135473 26.821365,-75.911473 29.781365,-76.518473 30.998365,-74.602473 29.188365,-72.181473 27.269365,-69.925473 28.534365,-67.785473 31.436365,-68.379473 34.429365,-68.799473 35.523365,-66.810473 33.564365,-64.508473 31.507365,-62.377473 32.636365,-60.161473 35.570365,-60.572473 38.583365,-60.804473 39.550365,-58.750473 37.451365,-56.575473 35.264365,-54.577473 36.251365,-52.295473 39.205365,-52.521473 42.227365,-52.563473 43.062365,-50.453473 40.831365,-48.414473 38.523365,-46.557473 39.365365,-44.218473 42.327365,-44.258473 45.346365,-44.110473 46.047365,-41.951473 43.692365,-40.057473 41.272365,-38.349473 41.966365,-35.961473 44.925365,-35.815473 47.928365,-35.478473 48.493365,-33.279473 46.023365,-31.537473 43.501365,-29.983473 44.043365,-27.557473 46.987365,-27.226473 49.963365,-26.700473 50.388365,-24.471473 47.815365,-22.887473 45.200365,-21.495473 45.589365,-19.039473 48.506365,-18.524473 51.443365,-17.813473 51.728365,-15.560473 49.059365,-14.141473 46.362365,-12.916473 46.596365,-10.441473 49.475365,-9.743473 52.362365,-8.849473 52.504365,-6.584473 49.752365,-5.335473 46.983365,-4.282473 z"
       style="fill:none;stroke:#000000;stroke-width:0.9;stroke-miterlimit:4;stroke-dasharray:none;stroke-opacity:1"
       inkscape:connector-curvature="0" />
  </g>
  <path
     sodipodi:type="arc"
     style="fill:none;stroke:#000000;stroke-width:0.51743533;stroke-miterlimit:4;stroke-opacity:1;stroke-dasharray:none"
     id="path3002-1"
     sodipodi:cx="228.57143"
     sodipodi:cy="226.6479"
     sodipodi:rx="65.714287"
     sodipodi:ry="65.714287"
     d="M 294.28571,226.6479 A 65.714287,65.714287 0 1 1 162.85714,226.6479 65.714287,65.714287 0 1 1 294.28571,226.6479 z"
     transform="matrix(1.7393478,0,0,1.7393478,-246.3918,-241.20131)" />
  <path
     sodipodi:type="arc"
     style="fill:none;stroke:#000000;stroke-width:0.42085944;stroke-miterlimit:4;stroke-opacity:1;stroke-dasharray:none"
     id="path3002-4"
     sodipodi:cx="228.57143"
     sodipodi:cy="226.6479"
     sodipodi:rx="65.714287"
     sodipodi:ry="65.714287"
     d="M 294.28571,226.6479 A 65.714287,65.714287 0 1 1 162.85714,226.6479 65.714287,65.714287 0 1 1 294.28571,226.6479 z"
     transform="matrix(2.1384812,0,0,2.1384812,-337.62229,-331.66406)" />
</svg>
